<svg xmlns="http://www.w3.org/2000/svg" viewBox="0 0 32 32" width="32" height="32">
  <defs>
    <linearGradient id="g" x1="0" y1="0" x2="0" y2="1">
      <stop offset="0%" stop-color="#4ade80"/>
      <stop offset="100%" stop-color="#16a34a"/>
    </linearGradient>
  </defs>
  <path d="M22 28H10a1 1 0 0 1 0-2h12a1 1 0 0 1 0 2zm-1-4H11l-1-3h12l-1 3zm-2.5-5h-5L13 15.5c0-1.1-.6-2.1-1.5-2.7L10 12V9h3V7h-1.5a.5.5 0 0 1 0-1H14a4 4 0 0 1 4 4v2.2l-1.5 1c-.9.6-1.5 1.6-1.5 2.7V19zm3-8.5a5.5 5.5 0 0 0-5.5-5.5h-1a1.5 1.5 0 0 0-1.5 1.5V7H11V9H9v3.5l2 1.3c.6.4 1 1 1 1.7V19h8v-3.5c0-.7.4-1.3 1-1.7l2-1.3V9h-2V7h-1.5v-.5z" fill="url(#g)"/>
</svg>
